<?xml version="1.0" standalone="no"?>
<!DOCTYPE svg PUBLIC "-//W3C//DTD SVG 20010904//EN"
 "http://www.w3.org/TR/2001/REC-SVG-20010904/DTD/svg10.dtd">
<svg version="1.0" xmlns="http://www.w3.org/2000/svg"
 width="512.000000pt" height="512.000000pt" viewBox="0 0 512.000000 512.000000"
 preserveAspectRatio="xMidYMid meet">
<metadata>
Created by potrace 1.11, written by Peter Selinger 2001-2013
</metadata>
<g transform="translate(0.000000,512.000000) scale(0.100000,-0.100000)"
fill="#000000" stroke="none">
<path d="M2370 4580 c-336 -35 -651 -147 -924 -327 -862 -571 -1158 -1679
-696 -2603 258 -516 734 -902 1290 -1049 190 -49 313 -65 520 -65 207 0 330
16 520 65 699 184 1255 740 1439 1439 49 190 65 313 65 520 0 207 -16 330 -65
520 -185 703 -755 1269 -1454 1443 -216 54 -498 77 -695 57z m491 -529 c404
-86 743 -315 966 -653 109 -166 181 -339 225 -542 32 -146 32 -446 0 -592 -66
-306 -209 -570 -422 -781 -121 -120 -244 -208 -395 -282 -136 -68 -233 -101
-379 -133 -146 -32 -446 -32 -592 0 -615 133 -1063 581 -1196 1196 -32 146
-32 446 0 592 74 341 233 616 488 844 220 197 507 327 814 370 107 15 381 4
491 -19z"/>
</g>
</svg>
